<?xml version="1.0" encoding="UTF-8" standalone="no"?><!DOCTYPE svg PUBLIC "-//W3C//DTD SVG 1.1//EN" "http://www.w3.org/Graphics/SVG/1.1/DTD/svg11.dtd"><svg width="100%" height="100%" viewBox="0 0 144 144" version="1.1" xmlns="http://www.w3.org/2000/svg" xmlns:xlink="http://www.w3.org/1999/xlink" xml:space="preserve" xmlns:serif="http://www.serif.com/" style="fill-rule:evenodd;clip-rule:evenodd;stroke-linecap:round;stroke-linejoin:round;stroke-miterlimit:1.5;"><g id="H"><path d="M27.827,100.042l10.868,-6.326l0,-23.26l-10.864,1.986l-0.004,27.6Z" style="fill:#2c2e2d;stroke:#000;stroke-width:0.2px;"/><path d="M38.1,28.398l0,26.702l-10.05,5.461l0,-26.183l10.05,-5.98Z" style="fill:#485868;stroke:#000;stroke-width:0.2px;"/><path d="M28.05,22.33l10.05,6.043l-10.05,6.043l-10.05,-6.043l10.05,-6.043Z" style="fill:#8747ff;stroke:#000;stroke-width:0.2px;"/><path d="M28.056,60.561l10.034,-5.48l22.765,13.422l-5.9,7.678l-26.899,-15.62Z" style="fill:#8747ff;stroke:#000;stroke-width:0.2px;"/><path d="M18,28.398l0,65.806l9.92,5.838l0,-27.595l26.896,15.245l0,27.969l10.17,6.009l0,-66.457l-10.05,-5.938l0,26.88l-26.88,-15.593l0,-26.109l-10.056,-6.054Z" style="fill:#333544;stroke:#000;stroke-width:0.2px;"/><path d="M54.936,49.275l10.05,5.938l16.916,-8.887l-9.88,-5.628l-17.086,8.577Z" style="fill:#8747ff;stroke:#000;stroke-width:0.2px;"/><path d="M92.74,88.514l-10.838,-5.668l-9.172,-14.519l-2.81,-8.357l4.179,-0.425l18.641,28.97Z" style="fill:#2c2e2d;stroke:#000;stroke-width:0.2px;"/><path d="M116.221,95.342l-10.842,-6.356l0,-20.777l10.478,-23.968l0.365,51.1Z" style="fill:#2c2e2d;stroke:#000;stroke-width:0.2px;"/><path d="M110.043,37.241l15.957,-8.843l-9.572,-5.709l-16.455,8.912l10.069,5.64Z" style="fill:#8747ff;stroke:#000;stroke-width:0.2px;"/><path d="M99.974,31.601l-12.348,28.517l6.941,12.961l15.43,-35.838l-10.023,-5.64Z" style="fill:#562fa2;stroke:#000;stroke-width:0.2px;"/><path d="M64.986,121.67l0,-66.457l16.88,-8.942l13.998,23.752l14.179,-32.782l15.957,-8.843l0,61.163l-9.779,5.781l-0.347,-47.935l-15.418,36.698l-7.717,4.41l-16.917,-26.233l0,53.035l-10.837,6.354Z" style="fill:#485868;stroke:#000;stroke-width:0.2px;"/></g></svg>