<?xml version="1.0" encoding="UTF-8" standalone="no"?>
<!DOCTYPE svg PUBLIC "-//W3C//DTD SVG 1.1//EN" "http://www.w3.org/Graphics/SVG/1.1/DTD/svg11.dtd">
<svg width="100%" height="100%" viewBox="0 0 3000 3000" version="1.1" xmlns="http://www.w3.org/2000/svg" xmlns:xlink="http://www.w3.org/1999/xlink" xml:space="preserve" xmlns:serif="http://www.serif.com/" style="fill-rule:evenodd;clip-rule:evenodd;stroke-linecap:round;stroke-linejoin:round;stroke-miterlimit:1.5;">
    <g id="Layer1" transform="matrix(1,0,0,1,0.505067,-240.593785)">
        <g id="H">
            <g transform="matrix(1.008616,0,0,1,-6.436861,0)">
                <path d="M503.705,2374.077L747.118,2231.164L747.118,1705.721L503.802,1750.583L503.705,2374.077Z" style="fill:rgb(44,46,45);stroke:black;stroke-width:4.15px;"/>
            </g>
            <g transform="matrix(1,0,0,0.99354,0,4.881545)">
                <path d="M733.678,755.605L733.678,1362.735L506.645,1486.895L506.645,891.573L733.678,755.605Z" style="fill:rgb(72,88,104);stroke:black;stroke-width:4.18px;"/>
            </g>
            <g transform="matrix(1.342082,0,0,1.186147,-392.50096,-123.364304)">
                <path d="M669.963,625.464L839.128,740.561L669.963,855.659L500.798,740.561L669.963,625.464Z" style="fill:rgb(135,71,255);stroke:black;stroke-width:3.29px;"/>
            </g>
            <g transform="matrix(0.999075,0,0,1,0.468986,0)">
                <path d="M506.787,1482.192L733.678,1358.399L1248.423,1661.597L1115.013,1835.048L506.787,1482.192Z" style="fill:rgb(135,71,255);stroke:black;stroke-width:4.17px;"/>
            </g>
            <path d="M279.612,755.605L279.612,2242.185L503.705,2374.077L503.705,1750.7L1111.308,2095.091L1111.308,2726.912L1341.053,2862.66L1341.053,1361.36L1114.019,1227.216L1114.019,1834.448L506.787,1482.192L506.787,892.369L279.612,755.605Z" style="fill:rgb(51,53,68);stroke:black;stroke-width:4.17px;"/>
            <path d="M1114.019,1227.216L1341.053,1361.36L1723.194,1160.597L1500,1033.458L1114.019,1227.216Z" style="fill:rgb(135,71,255);stroke:black;stroke-width:4.17px;"/>
            <path d="M1968.028,2113.658L1723.194,1985.614L1516,1657.615L1452.522,1468.816L1546.922,1459.216L1968.028,2113.658Z" style="fill:rgb(44,46,45);stroke:black;stroke-width:4.17px;"/>
            <path d="M2498.473,2267.891L2253.541,2124.314L2253.541,1654.955L2490.238,1113.517L2498.473,2267.891Z" style="fill:rgb(44,46,45);stroke:black;stroke-width:4.17px;"/>
            <path d="M2358.896,955.367L2719.378,755.605L2503.149,626.63L2131.43,827.956L2358.896,955.367Z" style="fill:rgb(135,71,255);stroke:black;stroke-width:4.17px;"/>
            <path d="M2131.43,827.956L1852.494,1472.157L2009.293,1764.956L2357.86,955.367L2131.43,827.956Z" style="fill:rgb(86,47,162);stroke:black;stroke-width:4.17px;"/>
            <path d="M1341.053,2862.66L1341.053,1361.36L1722.379,1159.348L2038.589,1695.922L2358.896,955.367L2719.378,755.605L2719.378,2137.295L2498.473,2267.891L2490.644,1185.021L2142.353,2014.043L1968.028,2113.658L1585.872,1521.05L1585.872,2719.127L1341.053,2862.66Z" style="fill:rgb(72,88,104);stroke:black;stroke-width:4.17px;"/>
        </g>
    </g>
</svg>
